<?xml version="1.0" encoding="UTF-8"?>
<svg width="26px" height="26px" viewBox="0 0 26 26" version="1.1" xmlns="http://www.w3.org/2000/svg" xmlns:xlink="http://www.w3.org/1999/xlink">
    <title>Group 3</title>
    <g id="Reservamos" stroke="none" stroke-width="1" fill="none" fill-rule="evenodd">
        <g id="desktop-travel&amp;maps" transform="translate(-166.000000, -732.000000)">
            <g id="Group-2-Copy-15" transform="translate(166.000000, 732.000000)">
                <g id="Group-3">
                    <g id="Group-2-Copy">
                        <rect id="Rectangle" fill-opacity="0.1" fill="#FFFFFF" x="0" y="0" width="26.0000014" height="26.0000014"></rect>
                        <g id="Group-Copy" transform="translate(4.000000, 3.000000)">
                            <g id="Group-9" transform="translate(2.038608, 3.057912)" fill="#FF79A4">
                                <path d="M6.10933239,16.0162436 C5.88606511,16.4064038 5.32626722,16.4064038 5.10299994,16.0162436 L0.758251261,8.44664226 C-1.39619651,4.69257904 1.2968632,0 5.60657359,0 C9.91546913,0 12.6085288,4.69257904 10.4540811,8.44664226 L6.10933239,16.0162436 Z" id="Fill-7"></path>
                            </g>
                            <g id="Group-9-Copy" fill="#C7C7C7" stroke="#C7C7C7" stroke-width="0.886794467">
                                <path d="M8.48672498,20.7506847 C8.20743569,21.2358734 7.50717385,21.2358734 7.22788456,20.7506847 L1.79295571,11.3374124 C-0.902084027,6.66900019 2.46671564,0.833484869 7.85781442,0.833484869 C13.2478939,0.833484869 16.6166936,6.66900019 13.9216538,11.3374124 L8.48672498,20.7506847 Z" id="Fill-7"></path>
                            </g>
                            <circle id="Oval" fill="#FFFFFF" cx="7.64477989" cy="8.66408388" r="2.54825996"></circle>
                        </g>
                        <g id="Group" transform="translate(7.200000, 2.600000)">
                            <g id="Group-9" transform="translate(2.038608, 3.057912)" fill="#FF79A4">
                                <path d="M6.10933239,16.0162436 C5.88606511,16.4064038 5.32626722,16.4064038 5.10299994,16.0162436 L0.758251261,8.44664226 C-1.39619651,4.69257904 1.2968632,0 5.60657359,0 C9.91546913,0 12.6085288,4.69257904 10.4540811,8.44664226 L6.10933239,16.0162436 Z" id="Fill-7"></path>
                            </g>
                            <g id="Group-9-Copy" fill="#FFFFFF" stroke="#686868" stroke-width="0.886794467">
                                <path d="M8.48672498,20.7506847 C8.20743569,21.2358734 7.50717385,21.2358734 7.22788456,20.7506847 L1.79295571,11.3374124 C-0.902084027,6.66900019 2.46671564,0.833484869 7.85781442,0.833484869 C13.2478939,0.833484869 16.6166936,6.66900019 13.9216538,11.3374124 L8.48672498,20.7506847 Z" id="Fill-7"></path>
                            </g>
                            <circle id="Oval" stroke="#686868" stroke-width="0.886794467" fill="#FFFFFF" cx="7.64477989" cy="8.66408388" r="2.54825996"></circle>
                        </g>
                    </g>
                </g>
            </g>
        </g>
    </g>
</svg>